<?xml version="1.0" standalone="no"?>
<!DOCTYPE svg PUBLIC "-//W3C//DTD SVG 20010904//EN"
 "http://www.w3.org/TR/2001/REC-SVG-20010904/DTD/svg10.dtd">
<svg version="1.0" xmlns="http://www.w3.org/2000/svg"
 width="700.000000pt" height="700.000000pt" viewBox="0 0 700.000000 700.000000"
 preserveAspectRatio="xMidYMid meet">
<metadata>
Created by potrace 1.11, written by Peter Selinger 2001-2013
</metadata>
<g transform="translate(0.000000,700.000000) scale(0.100000,-0.100000)"
fill="#000000" stroke="none">
<path d="M2076 4844 l-1410 -1415 187 -187 187 -187 1225 1225 1225 1225 1230
-1230 1230 -1230 190 190 190 190 -1417 1417 c-780 780 -1420 1418 -1423 1417
-3 0 -639 -637 -1414 -1415z"/>
<path d="M2092 3703 c3 -10 121 -449 263 -976 l259 -957 279 2 280 3 166 622
c91 343 168 623 172 623 3 0 76 -260 164 -577 87 -318 164 -599 172 -625 l14
-48 279 0 c154 0 280 2 280 5 0 2 117 438 260 969 143 530 260 967 260 970 0
3 -115 6 -255 6 -140 0 -255 -1 -255 -3 0 -10 -310 -1320 -313 -1323 -4 -5
-31 98 -220 841 l-123 480 -250 3 -251 2 -167 -627 c-191 -715 -188 -705 -193
-699 -3 2 -71 300 -152 663 l-147 658 -263 3 c-248 2 -263 1 -259 -15z"/>
<path d="M1520 2015 l0 -1475 1990 0 1990 0 0 1475 0 1475 -260 0 -260 0 0
-1210 0 -1210 -1470 0 -1470 0 0 1210 0 1210 -260 0 -260 0 0 -1475z"/>
</g>
</svg>
