<?xml version="1.0" encoding="UTF-8" standalone="no"?>
<svg
   xmlns:dc="http://purl.org/dc/elements/1.1/"
   xmlns:cc="http://creativecommons.org/ns#"
   xmlns:rdf="http://www.w3.org/1999/02/22-rdf-syntax-ns#"
   xmlns:svg="http://www.w3.org/2000/svg"
   xmlns="http://www.w3.org/2000/svg"
   id="svg25"
   version="1.1"
   height="400"
   width="400">
  <metadata
     id="metadata31">
    <rdf:RDF>
      <cc:Work
         rdf:about="">
        <dc:format>image/svg+xml</dc:format>
        <dc:type
           rdf:resource="http://purl.org/dc/dcmitype/StillImage" />
      </cc:Work>
    </rdf:RDF>
  </metadata>
  <defs
     id="defs29" />
  <g
     id="g6">
    <title
       id="title2">background</title>
    <g
       style="display:none"
       display="none"
       id="canvasGrid">
      <path
         id="svg_1"
         d="M 0,0 H 400 V 400 H 0 Z"
         style="fill:url(#gridpattern);stroke-width:0" />
    </g>
  </g>
  <g
     id="g18">
    <title
       id="title8">house</title>
    <path
       id="svg_21"
       d="M 397.00345,199.93748 A 197.50346,197.50346 0 0 1 199.49998,397.44095 197.50346,197.50346 0 0 1 1.996521,199.93748 197.50346,197.50346 0 0 1 199.49998,2.434021 197.50346,197.50346 0 0 1 397.00345,199.93748 Z"
       style="fill:#ffffff;stroke:#000000;stroke-width:1.5" />
    <g
       id="svg_13"
       style="font-weight:bold;font-size:24px;font-family:Euphoria, sans-serif;text-anchor:start;fill:#7f3f00;stroke:#7f3f00;stroke-width:0"
       transform="matrix(6.3852433,0,0,6.3852433,-762.1137,-1119.9985)"
       aria-label="W">
      <path
         id="path35"
         style="font-weight:bold;font-size:24px;font-family:Euphoria, sans-serif;text-anchor:start;fill:#7f3f00;stroke:#7f3f00;stroke-width:0"
         d="m 163.58452,200.08318 -4.69922,17.44921 h -4.98047 l -3.12891,-11.36718 -3.04687,11.36718 h -4.98047 l -4.69922,-17.44921 h 4.69922 l 2.68359,12.01171 3.21094,-12.01171 h 4.48828 l 3.05859,12.01171 2.8125,-12.01171 z" />
    </g>
    <path
       id="svg_7"
       d="M 87.475449,171.56644 H 115.96766 V 338.35077 H 87.475449 Z"
       style="fill:#7f3f00;stroke:#7f3f00;stroke-width:1.5" />
    <path
       id="svg_8"
       d="m 126.11507,181.8035 h 20.49992 v 120 h -20.49992 z"
       style="fill:#7f3f00;stroke:#7f3f00;stroke-width:1.5"
       transform="matrix(0,1.3898695,-1.3898695,0,536.17216,134.57479)" />
    <path
       id="svg_9"
       d="m 285.22681,171.56644 h 28.49221 v 166.78433 h -28.49221 z"
       style="fill:#7f3f00;stroke:#7f3f00;stroke-width:1.5" />
    <g
       stroke="null"
       id="svg_15">
      <path
         id="svg_10"
         d="m 75.928078,16.50543 h 20.49992 v 141.74355 h -20.49992 z"
         style="fill:#7f3f00;stroke:#7f3f00;stroke-width:1.5"
         transform="matrix(0.98278611,0.98278611,-0.98278611,0.98278611,120.229,-55.246481)" />
      <path
         id="svg_11"
         d="m 195.55832,8.3722296 h 20.49992 V 171.85931 h -20.49992 z"
         style="fill:#7f3f00;stroke:#7f3f00;stroke-width:1.5"
         transform="matrix(0.98278611,-0.98278611,0.98278611,0.98278611,-21.065616,218.68613)" />
    </g>
  </g>
  <g
     id="g23">
    <title
       id="title20">background</title>
    <path
       id="canvas_background"
       d="M -1,-1 H 581 V 401 H -1 Z"
       style="fill:none" />
  </g>
</svg>
